<mxfile host="app.diagrams.net" modified="2022-04-22T09:08:53.542Z" agent="5.0 (Macintosh; Intel Mac OS X 10_15_7) AppleWebKit/537.36 (KHTML, like Gecko) Chrome/100.0.4896.127 Safari/537.36" etag="RQoprgUq9y3ieo2CK7fk" version="17.4.6" type="github">
  <diagram id="C5RBs43oDa-KdzZeNtuy" name="Page-1">
    <mxGraphModel dx="1486" dy="873" grid="1" gridSize="10" guides="1" tooltips="1" connect="1" arrows="1" fold="1" page="1" pageScale="1" pageWidth="827" pageHeight="1169" math="0" shadow="0">
      <root>
        <mxCell id="WIyWlLk6GJQsqaUBKTNV-0" />
        <mxCell id="WIyWlLk6GJQsqaUBKTNV-1" parent="WIyWlLk6GJQsqaUBKTNV-0" />
        <mxCell id="580THTsSkql1xGWtSYTH-1" value="Topology Estimation and Optimization" style="verticalAlign=top;align=left;spacingTop=8;spacingLeft=2;spacingRight=12;shape=cube;size=10;direction=south;fontStyle=4;html=1;" vertex="1" parent="WIyWlLk6GJQsqaUBKTNV-1">
          <mxGeometry x="220" y="390" width="640" height="400" as="geometry" />
        </mxCell>
        <mxCell id="580THTsSkql1xGWtSYTH-361" style="edgeStyle=orthogonalEdgeStyle;rounded=0;orthogonalLoop=1;jettySize=auto;html=1;exitX=1;exitY=0.5;exitDx=0;exitDy=0;entryX=0;entryY=0.5;entryDx=0;entryDy=0;" edge="1" parent="WIyWlLk6GJQsqaUBKTNV-1" source="580THTsSkql1xGWtSYTH-6" target="580THTsSkql1xGWtSYTH-356">
          <mxGeometry relative="1" as="geometry" />
        </mxCell>
        <mxCell id="580THTsSkql1xGWtSYTH-6" value="Batch Interface" style="shape=ext;double=1;rounded=0;whiteSpace=wrap;html=1;" vertex="1" parent="WIyWlLk6GJQsqaUBKTNV-1">
          <mxGeometry x="110" y="442.5" width="80" height="60" as="geometry" />
        </mxCell>
        <mxCell id="580THTsSkql1xGWtSYTH-7" value="Logical Topology" style="shape=ext;double=1;rounded=0;whiteSpace=wrap;html=1;" vertex="1" parent="WIyWlLk6GJQsqaUBKTNV-1">
          <mxGeometry x="270" y="560" width="80" height="50" as="geometry" />
        </mxCell>
        <mxCell id="580THTsSkql1xGWtSYTH-8" style="edgeStyle=orthogonalEdgeStyle;rounded=0;orthogonalLoop=1;jettySize=auto;html=1;exitX=0.5;exitY=1;exitDx=0;exitDy=0;" edge="1" parent="WIyWlLk6GJQsqaUBKTNV-1" source="580THTsSkql1xGWtSYTH-6" target="580THTsSkql1xGWtSYTH-6">
          <mxGeometry relative="1" as="geometry" />
        </mxCell>
        <mxCell id="580THTsSkql1xGWtSYTH-0" value="&lt;span&gt;package : Networkx&lt;/span&gt;" style="shape=folder;fontStyle=1;spacingTop=10;tabWidth=40;tabHeight=14;tabPosition=left;html=1;align=left;" vertex="1" parent="WIyWlLk6GJQsqaUBKTNV-1">
          <mxGeometry x="430" y="510" width="236" height="250" as="geometry" />
        </mxCell>
        <mxCell id="580THTsSkql1xGWtSYTH-9" style="edgeStyle=orthogonalEdgeStyle;rounded=0;orthogonalLoop=1;jettySize=auto;html=1;exitX=0.5;exitY=1;exitDx=0;exitDy=0;" edge="1" parent="WIyWlLk6GJQsqaUBKTNV-1" source="580THTsSkql1xGWtSYTH-7" target="580THTsSkql1xGWtSYTH-7">
          <mxGeometry relative="1" as="geometry" />
        </mxCell>
        <mxCell id="580THTsSkql1xGWtSYTH-372" style="edgeStyle=orthogonalEdgeStyle;rounded=0;orthogonalLoop=1;jettySize=auto;html=1;entryX=0;entryY=0.5;entryDx=0;entryDy=0;" edge="1" parent="WIyWlLk6GJQsqaUBKTNV-1" source="580THTsSkql1xGWtSYTH-4" target="580THTsSkql1xGWtSYTH-371">
          <mxGeometry relative="1" as="geometry" />
        </mxCell>
        <mxCell id="580THTsSkql1xGWtSYTH-4" value="Spanning Tree layout&lt;br&gt;&lt;b&gt;Component&lt;/b&gt;" style="html=1;dropTarget=0;" vertex="1" parent="WIyWlLk6GJQsqaUBKTNV-1">
          <mxGeometry x="460" y="680" width="166" height="70" as="geometry" />
        </mxCell>
        <mxCell id="580THTsSkql1xGWtSYTH-5" value="" style="shape=module;jettyWidth=8;jettyHeight=4;" vertex="1" parent="580THTsSkql1xGWtSYTH-4">
          <mxGeometry x="1" width="20" height="20" relative="1" as="geometry">
            <mxPoint x="-27" y="7" as="offset" />
          </mxGeometry>
        </mxCell>
        <mxCell id="580THTsSkql1xGWtSYTH-16" style="edgeStyle=orthogonalEdgeStyle;rounded=0;orthogonalLoop=1;jettySize=auto;html=1;exitX=0.5;exitY=1;exitDx=0;exitDy=0;entryX=0.5;entryY=0;entryDx=0;entryDy=0;" edge="1" parent="WIyWlLk6GJQsqaUBKTNV-1" source="580THTsSkql1xGWtSYTH-2" target="580THTsSkql1xGWtSYTH-4">
          <mxGeometry relative="1" as="geometry" />
        </mxCell>
        <mxCell id="580THTsSkql1xGWtSYTH-370" style="edgeStyle=orthogonalEdgeStyle;rounded=0;orthogonalLoop=1;jettySize=auto;html=1;exitX=1;exitY=0.5;exitDx=0;exitDy=0;entryX=0;entryY=0.5;entryDx=0;entryDy=0;" edge="1" parent="WIyWlLk6GJQsqaUBKTNV-1" source="580THTsSkql1xGWtSYTH-2" target="580THTsSkql1xGWtSYTH-369">
          <mxGeometry relative="1" as="geometry" />
        </mxCell>
        <mxCell id="580THTsSkql1xGWtSYTH-374" style="edgeStyle=orthogonalEdgeStyle;rounded=0;orthogonalLoop=1;jettySize=auto;html=1;" edge="1" parent="WIyWlLk6GJQsqaUBKTNV-1" source="580THTsSkql1xGWtSYTH-7" target="580THTsSkql1xGWtSYTH-2">
          <mxGeometry relative="1" as="geometry" />
        </mxCell>
        <mxCell id="580THTsSkql1xGWtSYTH-2" value="Spring layout&lt;br&gt;&lt;b&gt;Component&lt;/b&gt;" style="html=1;dropTarget=0;" vertex="1" parent="WIyWlLk6GJQsqaUBKTNV-1">
          <mxGeometry x="460" y="550" width="166" height="70" as="geometry" />
        </mxCell>
        <mxCell id="580THTsSkql1xGWtSYTH-3" value="" style="shape=module;jettyWidth=8;jettyHeight=4;" vertex="1" parent="580THTsSkql1xGWtSYTH-2">
          <mxGeometry x="1" width="20" height="20" relative="1" as="geometry">
            <mxPoint x="-27" y="7" as="offset" />
          </mxGeometry>
        </mxCell>
        <mxCell id="580THTsSkql1xGWtSYTH-365" style="edgeStyle=orthogonalEdgeStyle;rounded=0;orthogonalLoop=1;jettySize=auto;html=1;" edge="1" parent="WIyWlLk6GJQsqaUBKTNV-1" source="580THTsSkql1xGWtSYTH-356" target="580THTsSkql1xGWtSYTH-7">
          <mxGeometry relative="1" as="geometry" />
        </mxCell>
        <mxCell id="580THTsSkql1xGWtSYTH-356" value="Batch Topology Class" style="swimlane;fontStyle=1;align=center;verticalAlign=top;childLayout=stackLayout;horizontal=1;startSize=26;horizontalStack=0;resizeParent=1;resizeParentMax=0;resizeLast=0;collapsible=1;marginBottom=0;" vertex="1" parent="WIyWlLk6GJQsqaUBKTNV-1">
          <mxGeometry x="230" y="430" width="160" height="86" as="geometry" />
        </mxCell>
        <mxCell id="580THTsSkql1xGWtSYTH-357" value="+ Graph ()" style="text;strokeColor=none;fillColor=none;align=left;verticalAlign=top;spacingLeft=4;spacingRight=4;overflow=hidden;rotatable=0;points=[[0,0.5],[1,0.5]];portConstraint=eastwest;" vertex="1" parent="580THTsSkql1xGWtSYTH-356">
          <mxGeometry y="26" width="160" height="26" as="geometry" />
        </mxCell>
        <mxCell id="580THTsSkql1xGWtSYTH-358" value="" style="line;strokeWidth=1;fillColor=none;align=left;verticalAlign=middle;spacingTop=-1;spacingLeft=3;spacingRight=3;rotatable=0;labelPosition=right;points=[];portConstraint=eastwest;" vertex="1" parent="580THTsSkql1xGWtSYTH-356">
          <mxGeometry y="52" width="160" height="8" as="geometry" />
        </mxCell>
        <mxCell id="580THTsSkql1xGWtSYTH-359" value="+ Calculate total length():" style="text;strokeColor=none;fillColor=none;align=left;verticalAlign=top;spacingLeft=4;spacingRight=4;overflow=hidden;rotatable=0;points=[[0,0.5],[1,0.5]];portConstraint=eastwest;" vertex="1" parent="580THTsSkql1xGWtSYTH-356">
          <mxGeometry y="60" width="160" height="26" as="geometry" />
        </mxCell>
        <mxCell id="580THTsSkql1xGWtSYTH-369" value="Optimal Spring Topology" style="shape=ext;double=1;rounded=0;whiteSpace=wrap;html=1;" vertex="1" parent="WIyWlLk6GJQsqaUBKTNV-1">
          <mxGeometry x="740" y="560" width="100" height="50" as="geometry" />
        </mxCell>
        <mxCell id="580THTsSkql1xGWtSYTH-371" value="Optimal Spanning Tree Topology" style="shape=ext;double=1;rounded=0;whiteSpace=wrap;html=1;" vertex="1" parent="WIyWlLk6GJQsqaUBKTNV-1">
          <mxGeometry x="740" y="690" width="100" height="50" as="geometry" />
        </mxCell>
        <mxCell id="580THTsSkql1xGWtSYTH-380" value="Performance assesment" style="verticalAlign=top;align=left;spacingTop=8;spacingLeft=2;spacingRight=12;shape=cube;size=10;direction=south;fontStyle=4;html=1;" vertex="1" parent="WIyWlLk6GJQsqaUBKTNV-1">
          <mxGeometry x="920" y="500" width="220" height="290" as="geometry" />
        </mxCell>
        <mxCell id="580THTsSkql1xGWtSYTH-384" style="edgeStyle=orthogonalEdgeStyle;rounded=0;orthogonalLoop=1;jettySize=auto;html=1;exitX=1;exitY=0.5;exitDx=0;exitDy=0;" edge="1" parent="WIyWlLk6GJQsqaUBKTNV-1" source="580THTsSkql1xGWtSYTH-369" target="580THTsSkql1xGWtSYTH-381">
          <mxGeometry relative="1" as="geometry">
            <mxPoint x="910" y="580" as="sourcePoint" />
          </mxGeometry>
        </mxCell>
        <mxCell id="580THTsSkql1xGWtSYTH-385" style="edgeStyle=orthogonalEdgeStyle;rounded=0;orthogonalLoop=1;jettySize=auto;html=1;exitX=1;exitY=0.5;exitDx=0;exitDy=0;entryX=0;entryY=0.75;entryDx=0;entryDy=0;" edge="1" parent="WIyWlLk6GJQsqaUBKTNV-1" source="580THTsSkql1xGWtSYTH-371" target="580THTsSkql1xGWtSYTH-381">
          <mxGeometry relative="1" as="geometry" />
        </mxCell>
        <mxCell id="580THTsSkql1xGWtSYTH-387" style="edgeStyle=orthogonalEdgeStyle;rounded=0;orthogonalLoop=1;jettySize=auto;html=1;exitX=0.5;exitY=1;exitDx=0;exitDy=0;entryX=0.5;entryY=0;entryDx=0;entryDy=0;" edge="1" parent="WIyWlLk6GJQsqaUBKTNV-1" source="580THTsSkql1xGWtSYTH-381" target="580THTsSkql1xGWtSYTH-382">
          <mxGeometry relative="1" as="geometry" />
        </mxCell>
        <mxCell id="580THTsSkql1xGWtSYTH-381" value="Stochastic Model for PV&amp;nbsp;" style="html=1;" vertex="1" parent="WIyWlLk6GJQsqaUBKTNV-1">
          <mxGeometry x="950" y="550" width="150" height="70" as="geometry" />
        </mxCell>
        <mxCell id="580THTsSkql1xGWtSYTH-394" style="edgeStyle=orthogonalEdgeStyle;rounded=0;orthogonalLoop=1;jettySize=auto;html=1;exitX=0.5;exitY=1;exitDx=0;exitDy=0;entryX=0.5;entryY=0;entryDx=0;entryDy=0;" edge="1" parent="WIyWlLk6GJQsqaUBKTNV-1" source="580THTsSkql1xGWtSYTH-382" target="580THTsSkql1xGWtSYTH-388">
          <mxGeometry relative="1" as="geometry" />
        </mxCell>
        <mxCell id="580THTsSkql1xGWtSYTH-382" value="Scheduling Model for Batch" style="html=1;" vertex="1" parent="WIyWlLk6GJQsqaUBKTNV-1">
          <mxGeometry x="950" y="650" width="160" height="60" as="geometry" />
        </mxCell>
        <mxCell id="580THTsSkql1xGWtSYTH-388" value="KPI Chart" style="shape=ext;double=1;rounded=0;whiteSpace=wrap;html=1;" vertex="1" parent="WIyWlLk6GJQsqaUBKTNV-1">
          <mxGeometry x="995" y="740" width="70" height="40" as="geometry" />
        </mxCell>
      </root>
    </mxGraphModel>
  </diagram>
</mxfile>
